<?xml version="1.0" standalone="no"?>
<!DOCTYPE svg PUBLIC "-//W3C//DTD SVG 20010904//EN"
 "http://www.w3.org/TR/2001/REC-SVG-20010904/DTD/svg10.dtd">
<svg version="1.0" xmlns="http://www.w3.org/2000/svg"
 width="777.000000pt" height="777.000000pt" viewBox="0 0 777.000000 777.000000"
 preserveAspectRatio="xMidYMid meet">
<metadata>
Created by potrace 1.14, written by Peter Selinger 2001-2017
</metadata>
<g transform="translate(0.000000,777.000000) scale(0.100000,-0.100000)"
fill="#000000" stroke="none">
<path d="M4545 5489 c-541 -38 -1074 -198 -1546 -462 -64 -36 -68 -37 -200
-42 -657 -28 -1280 -149 -1724 -335 -201 -84 -458 -234 -566 -329 -45 -39 -45
-40 -57 -133 -6 -51 -14 -124 -18 -163 -3 -38 -17 -119 -31 -180 -24 -105 -24
-116 -14 -240 6 -71 11 -162 11 -201 0 -50 6 -85 20 -116 11 -25 25 -74 32
-108 13 -61 14 -64 53 -77 64 -23 263 -72 353 -87 74 -13 88 -19 127 -55 23
-22 63 -50 87 -63 42 -22 50 -23 363 -26 296 -3 323 -2 375 17 52 18 93 19
660 25 364 3 699 11 840 20 330 21 292 27 341 -46 51 -75 132 -154 179 -174
19 -9 44 -21 55 -27 14 -7 135 -10 384 -9 315 1 370 4 410 18 142 53 270 223
340 454 l29 95 81 3 c45 2 81 -1 81 -6 0 -5 13 -15 29 -21 29 -13 99 -2 873
139 l269 48 52 -53 c48 -49 57 -54 110 -60 32 -4 112 -6 177 -3 137 5 153 12
207 92 26 37 64 139 89 234 2 6 16 12 33 12 39 0 42 12 48 217 11 336 -55 551
-217 713 -68 69 -92 85 -264 174 -271 140 -335 185 -526 371 -147 143 -174
165 -250 201 -304 148 -804 218 -1295 183z m664 -143 c29 -26 27 -69 -8 -130
-15 -28 -52 -96 -81 -151 -30 -55 -63 -108 -74 -118 -23 -20 -27 -20 -461 8
-371 23 -725 35 -1122 38 -204 1 -370 3 -370 4 1 0 47 24 102 51 219 110 474
205 730 272 158 42 262 48 816 46 424 -1 448 -2 468 -20z m397 -27 c101 -31
212 -78 269 -115 28 -18 103 -88 167 -156 65 -67 147 -145 184 -171 36 -27 63
-51 60 -54 -23 -23 -571 -19 -731 5 l-50 8 32 17 c70 37 84 104 31 156 -52 51
-155 74 -270 61 -64 -7 -64 -8 -4 80 61 90 117 145 171 171 51 24 58 23 141
-2z m-2098 -580 c94 -10 248 -41 258 -52 12 -12 -37 -98 -78 -139 -102 -102
-320 -180 -568 -203 -214 -19 -723 -39 -924 -35 -41 0 -26 15 107 104 294 195
545 287 902 329 67 8 211 6 303 -4z m1300 -104 c192 -88 342 -367 392 -730 14
-101 10 -143 -5 -57 -68 369 -218 648 -394 735 -80 40 -175 38 -258 -3 -110
-55 -220 -201 -293 -389 -35 -90 -73 -226 -94 -336 l-16 -80 5 80 c12 225 98
473 218 630 59 77 164 156 231 173 60 16 151 6 214 -23z m682 16 c131 -6 139
-8 80 -14 -36 -3 -122 -9 -192 -13 -71 -3 -128 -9 -128 -13 0 -3 6 -14 13 -23
11 -14 44 -18 223 -24 223 -9 217 -11 -61 -29 -83 -5 -115 -11 -115 -20 0 -34
62 -44 289 -45 74 0 132 -2 130 -4 -2 -2 -85 -9 -184 -16 -99 -6 -182 -14
-184 -16 -2 -2 1 -15 7 -29 l12 -25 182 -1 183 -2 -172 -15 c-168 -15 -173
-16 -173 -38 0 -12 7 -25 16 -28 9 -3 91 -6 182 -7 92 0 163 -2 157 -4 -5 -2
-76 -9 -157 -16 -81 -7 -152 -15 -159 -19 -6 -4 -8 -16 -4 -29 6 -20 12 -21
178 -22 l172 -1 -164 -19 c-91 -11 -166 -21 -168 -22 -1 -2 1 -13 4 -26 l6
-24 201 5 c127 3 177 1 136 -4 -36 -4 -121 -15 -190 -23 -68 -9 -128 -19 -131
-23 -4 -4 -3 -17 2 -29 8 -21 13 -22 66 -18 82 6 340 14 328 10 -9 -4 -205
-30 -325 -44 -50 -5 -55 -8 -55 -31 0 -24 3 -25 60 -25 33 0 128 3 210 6 l150
7 -170 -24 c-233 -33 -235 -33 -242 -50 -14 -38 -3 -40 188 -27 215 14 281 14
189 2 -72 -10 -300 -47 -342 -55 -21 -4 -28 -11 -28 -30 0 -13 6 -24 13 -24 6
0 98 7 202 15 301 23 298 20 -25 -31 -96 -15 -179 -31 -183 -35 -5 -4 -6 -16
-3 -26 6 -17 13 -18 89 -12 223 19 380 30 384 26 2 -3 -22 -8 -54 -12 -95 -11
-402 -63 -413 -70 -5 -3 -10 -22 -10 -41 0 -41 -1 -40 144 -19 141 21 450 55
483 54 38 -1 -432 -88 -657 -122 -13 -2 -15 18 -16 118 -6 467 -77 792 -225
1030 -14 22 -28 45 -32 51 -4 8 15 10 66 7 40 -3 137 -8 217 -12z m-725 -207
c187 -92 328 -374 340 -679 4 -95 2 -111 -5 -75 -6 25 -20 88 -31 140 -31 140
-67 243 -120 350 -69 137 -154 233 -244 276 -37 17 -42 22 -20 18 17 -3 53
-17 80 -30z m2145 -20 c35 -41 61 -94 79 -168 17 -68 8 -67 -13 2 -24 74 -52
131 -83 163 -51 55 -105 7 -160 -144 -22 -60 -31 -78 -27 -52 10 65 57 176 87
207 40 40 77 37 117 -8z m-2215 -58 c62 -31 101 -66 153 -137 45 -62 102 -192
127 -289 40 -154 55 -390 35 -535 -6 -38 -13 -88 -16 -110 -10 -72 -73 -249
-111 -314 -48 -81 -131 -167 -186 -191 -23 -11 -62 -20 -86 -20 l-44 0 40 29
c120 87 209 253 260 483 26 119 26 467 0 588 -43 198 -111 344 -205 437 -35
35 -70 63 -77 63 -8 0 -17 5 -20 10 -12 20 80 10 130 -14z m2177 -48 c34 -23
82 -122 105 -214 25 -101 25 -414 0 -503 -27 -98 -66 -178 -104 -211 -42 -38
-61 -39 -35 -2 76 107 102 207 109 417 8 237 -33 426 -108 506 -16 17 -29 33
-29 35 0 6 35 -9 62 -28z m-5232 -72 c75 -12 125 -26 175 -51 132 -65 264
-184 282 -253 9 -36 -8 -74 -42 -94 -17 -9 -75 -25 -130 -34 -86 -14 -156 -15
-510 -10 -225 4 -423 8 -440 10 -16 2 -82 7 -145 10 -63 4 -153 12 -200 18
-47 6 -93 10 -103 10 -11 -1 -15 4 -10 11 4 7 0 6 -10 -2 -15 -12 -17 -10 -17
17 0 21 7 35 20 42 16 8 20 8 20 -4 0 -8 -8 -16 -17 -18 -12 -3 -4 -9 22 -18
55 -18 1452 -28 1495 -10 30 12 46 38 33 51 -4 4 -357 9 -783 11 l-775 3 3 70
c5 113 21 219 37 234 22 23 166 29 595 26 312 -2 417 -6 500 -19z m5367 -78
c-3 -8 -6 -5 -6 6 -1 11 2 17 5 13 3 -3 4 -12 1 -19z m-310 -10 c-3 -8 -6 -5
-6 6 -1 11 2 17 5 13 3 -3 4 -12 1 -19z m131 -213 c21 -61 11 -190 -15 -217
-28 -27 -40 -18 -59 49 -19 64 -14 134 11 183 21 42 46 36 63 -15z m-2247
-189 c77 -80 78 -274 2 -358 -39 -43 -108 -4 -133 77 -18 57 -16 171 5 223 18
45 56 82 85 82 10 0 28 -11 41 -24z m-444 -38 c-3 -8 -6 -5 -6 6 -1 11 2 17 5
13 3 -3 4 -12 1 -19z m-3442 -93 c335 -33 566 -47 885 -51 377 -5 436 -13 486
-65 44 -46 39 -100 -20 -219 -27 -52 -59 -109 -72 -126 -86 -115 -373 -140
-854 -73 -250 35 -518 87 -569 112 -40 19 -68 117 -80 277 -14 181 -30 170
224 145z m5502 -41 c-3 -3 -12 -4 -19 -1 -8 3 -5 6 6 6 11 1 17 -2 13 -5z"/>
<path d="M560 4191 c0 -11 -3 -26 -6 -35 -6 -15 55 -16 637 -16 554 0 641 2
629 14 -8 8 -46 24 -84 35 -66 20 -89 21 -622 21 -539 0 -554 -1 -554 -19z"/>
<path d="M547 4063 c-4 -3 -7 -19 -7 -35 l0 -28 735 0 c404 0 735 4 735 8 0 5
-13 20 -28 35 l-28 27 -700 0 c-386 0 -704 -3 -707 -7z"/>
<path d="M6278 3338 c-85 -15 -72 -30 19 -23 84 7 88 8 78 24 -7 12 -17 12
-97 -1z"/>
<path d="M5865 3263 c-44 -8 -150 -28 -235 -45 -85 -16 -182 -33 -215 -38 -33
-4 -83 -11 -110 -15 -38 -6 -60 -3 -90 10 -22 10 -59 18 -82 19 l-43 1 -25
-80 c-26 -78 -90 -225 -103 -235 -4 -3 -21 -25 -37 -49 -31 -46 -113 -131
-126 -131 -4 0 -14 -6 -21 -12 -18 -18 -55 -36 -108 -54 -40 -13 29 -14 670
-9 1061 8 2341 38 2323 55 -7 7 -335 17 -1158 36 -143 4 -359 10 -480 14 -206
6 -211 7 -75 9 172 2 890 18 1110 25 418 14 522 19 509 26 -18 9 -1349 49
-1668 50 -52 0 -92 2 -90 4 2 3 220 10 484 16 618 15 1184 35 1192 44 3 3 -18
6 -48 6 -30 0 -261 7 -514 15 -253 8 -622 18 -820 22 -445 9 -371 17 320 33
639 15 809 21 875 30 l55 8 -65 2 c-36 2 -90 4 -120 5 -30 1 -143 5 -250 9
-384 14 -838 26 -1010 27 -350 2 -288 15 110 22 663 11 1199 32 1186 45 -8 7
-646 30 -1096 38 -201 4 -374 10 -384 14 -11 4 126 10 305 13 281 6 513 14
947 31 57 2 105 6 108 9 13 13 -121 17 -325 11 -193 -6 -236 -5 -282 9 -82 24
-505 31 -614 10z m-102 -420 c-7 -2 -19 -2 -25 0 -7 3 -2 5 12 5 14 0 19 -2
13 -5z"/>
<path d="M480 3010 c83 -12 158 -12 140 0 -8 5 -55 9 -105 8 -85 -1 -87 -1
-35 -8z"/>
<path d="M705 2919 c-104 -3 -235 -8 -290 -9 -91 -2 -96 -3 -50 -11 66 -11
608 -28 618 -19 10 9 -42 44 -68 45 -11 1 -105 -2 -210 -6z"/>
<path d="M3290 2879 c-69 -4 -316 -13 -550 -19 -234 -6 -540 -16 -680 -21
-140 -5 -518 -14 -840 -19 -583 -9 -995 -22 -1005 -32 -9 -9 1289 -48 1624
-48 74 0 132 -2 129 -5 -3 -3 -221 -10 -484 -15 -738 -14 -1304 -31 -1354 -40
-39 -7 -33 -8 45 -9 50 -1 223 -6 385 -11 949 -30 3724 -63 3435 -41 -95 8
-144 22 -220 63 -36 19 -144 131 -170 176 l-19 32 -86 -2 c-47 0 -141 -4 -210
-9z"/>
</g>
</svg>
